<svg width="69" height="69" viewBox="0 0 69 69" fill="none" xmlns="http://www.w3.org/2000/svg">
<path fill-rule="evenodd" clip-rule="evenodd" d="M34.5 68C53.0015 68 68 53.0015 68 34.5C68 15.9985 53.0015 1 34.5 1C15.9985 1 1 15.9985 1 34.5C1 53.0015 15.9985 68 34.5 68ZM34.5 69C53.5538 69 69 53.5538 69 34.5C69 15.4462 53.5538 0 34.5 0C15.4462 0 0 15.4462 0 34.5C0 53.5538 15.4462 69 34.5 69Z" fill="#6D7D7D"/>
<path fill-rule="evenodd" clip-rule="evenodd" d="M30.5 46.2583L47 36.732C48.3333 35.9622 48.3333 34.0378 47 33.268L30.5 23.7417C29.1667 22.9719 27.5 23.9341 27.5 25.4737L27.5 44.5263C27.5 46.0659 29.1667 47.0281 30.5 46.2583ZM47.5 37.5981C49.5 36.4434 49.5 33.5566 47.5 32.4019L31 22.8756C29 21.7209 26.5 23.1643 26.5 25.4737L26.5 44.5263C26.5 46.8357 29 48.2791 31 47.1244L47.5 37.5981Z" fill="white"/>
</svg>
